<?xml version="1.0" encoding="UTF-8"?>
<mxfile host="app.diagrams.net" modified="2024-01-01T00:00:00.000Z" agent="5.0" etag="xxx" version="22.1.16" type="device">
  <diagram name="Kasir Use Case" id="kasir-usecase">
    <mxGraphModel dx="1422" dy="794" grid="1" gridSize="10" guides="1" tooltips="1" connect="1" arrows="1" fold="1" page="1" pageScale="1" pageWidth="1169" pageHeight="827" math="0" shadow="0">
      <root>
        <mxCell id="0" />
        <mxCell id="1" parent="0" />
        
        <!-- Title -->
        <mxCell id="title" value="USE CASE DIAGRAM - KASIR&#xa;SISTEM FASHION PARK" style="text;html=1;strokeColor=none;fillColor=none;align=center;verticalAlign=middle;whiteSpace=wrap;rounded=0;fontSize=16;fontStyle=1;fontColor=#000000;" vertex="1" parent="1">
          <mxGeometry x="400" y="20" width="350" height="40" as="geometry" />
        </mxCell>
        
        <!-- Actor -->
        <mxCell id="actor" value="KASIR" style="shape=umlActor;verticalLabelPosition=bottom;verticalAlign=top;html=1;outlineConnect=0;fillColor=#d5e8d4;strokeColor=#82b366;" vertex="1" parent="1">
          <mxGeometry x="50" y="100" width="30" height="60" as="geometry" />
        </mxCell>
        
        <!-- System Boundary -->
        <mxCell id="system" value="SISTEM FASHION PARK" style="rounded=1;whiteSpace=wrap;html=1;fillColor=#fff2cc;strokeColor=#d6b656;fontSize=14;fontStyle=1;" vertex="1" parent="1">
          <mxGeometry x="150" y="80" width="950" height="700" as="geometry" />
        </mxCell>
        
        <!-- Pencarian Barang Package -->
        <mxCell id="search_package" value="Pencarian Barang" style="rounded=1;whiteSpace=wrap;html=1;fillColor=#e1d5e7;strokeColor=#9673a6;fontSize=12;fontStyle=1;" vertex="1" parent="1">
          <mxGeometry x="180" y="120" width="200" height="200" as="geometry" />
        </mxCell>
        
        <mxCell id="search_main" value="Pencarian Barang" style="ellipse;whiteSpace=wrap;html=1;fillColor=#dae8fc;strokeColor=#6c8ebf;fontSize=11;fontStyle=1;" vertex="1" parent="1">
          <mxGeometry x="200" y="150" width="160" height="40" as="geometry" />
        </mxCell>
        
        <mxCell id="search_name" value="Pencarian Nama&#xa;• Nama produk&#xa;• Keyword" style="ellipse;whiteSpace=wrap;html=1;fillColor=#dae8fc;strokeColor=#6c8ebf;fontSize=9;" vertex="1" parent="1">
          <mxGeometry x="190" y="210" width="120" height="60" as="geometry" />
        </mxCell>
        
        <mxCell id="search_barcode" value="Pencarian Barcode&#xa;• Scan barcode&#xa;• Input manual" style="ellipse;whiteSpace=wrap;html=1;fillColor=#dae8fc;strokeColor=#6c8ebf;fontSize=9;" vertex="1" parent="1">
          <mxGeometry x="250" y="210" width="120" height="60" as="geometry" />
        </mxCell>
        
        <mxCell id="search_category" value="Pencarian Kategori&#xa;• Filter kategori&#xa;• Produk" style="ellipse;whiteSpace=wrap;html=1;fillColor=#dae8fc;strokeColor=#6c8ebf;fontSize=9;" vertex="1" parent="1">
          <mxGeometry x="190" y="280" width="120" height="60" as="geometry" />
        </mxCell>
        
        <mxCell id="search_price" value="Filter Harga&#xa;• Range harga&#xa;• Produk" style="ellipse;whiteSpace=wrap;html=1;fillColor=#dae8fc;strokeColor=#6c8ebf;fontSize=9;" vertex="1" parent="1">
          <mxGeometry x="250" y="280" width="120" height="60" as="geometry" />
        </mxCell>
        
        <!-- Proses Transaksi Package -->
        <mxCell id="transaction_package" value="Proses Transaksi" style="rounded=1;whiteSpace=wrap;html=1;fillColor=#e1d5e7;strokeColor=#9673a6;fontSize=12;fontStyle=1;" vertex="1" parent="1">
          <mxGeometry x="420" y="120" width="200" height="200" as="geometry" />
        </mxCell>
        
        <mxCell id="transaction_main" value="Proses Transaksi" style="ellipse;whiteSpace=wrap;html=1;fillColor=#dae8fc;strokeColor=#6c8ebf;fontSize=11;fontStyle=1;" vertex="1" parent="1">
          <mxGeometry x="440" y="150" width="160" height="40" as="geometry" />
        </mxCell>
        
        <mxCell id="transaction_add" value="Tambah ke Keranjang&#xa;• Produk ke keranjang&#xa;• Transaksi" style="ellipse;whiteSpace=wrap;html=1;fillColor=#dae8fc;strokeColor=#6c8ebf;fontSize=9;" vertex="1" parent="1">
          <mxGeometry x="430" y="210" width="120" height="60" as="geometry" />
        </mxCell>
        
        <mxCell id="transaction_update" value="Update Jumlah&#xa;• Ubah jumlah&#xa;• Produk" style="ellipse;whiteSpace=wrap;html=1;fillColor=#dae8fc;strokeColor=#6c8ebf;fontSize=9;" vertex="1" parent="1">
          <mxGeometry x="490" y="210" width="120" height="60" as="geometry" />
        </mxCell>
        
        <mxCell id="transaction_remove" value="Hapus Produk&#xa;• Hapus dari&#xa;• Keranjang" style="ellipse;whiteSpace=wrap;html=1;fillColor=#dae8fc;strokeColor=#6c8ebf;fontSize=9;" vertex="1" parent="1">
          <mxGeometry x="430" y="280" width="120" height="60" as="geometry" />
        </mxCell>
        
        <mxCell id="transaction_view" value="Lihat Keranjang&#xa;• Semua produk&#xa;• Dalam keranjang" style="ellipse;whiteSpace=wrap;html=1;fillColor=#dae8fc;strokeColor=#6c8ebf;fontSize=9;" vertex="1" parent="1">
          <mxGeometry x="490" y="280" width="120" height="60" as="geometry" />
        </mxCell>
        
        <!-- Scan Barcode Package -->
        <mxCell id="barcode_package" value="Scan Barcode" style="rounded=1;whiteSpace=wrap;html=1;fillColor=#e1d5e7;strokeColor=#9673a6;fontSize=12;fontStyle=1;" vertex="1" parent="1">
          <mxGeometry x="660" y="120" width="200" height="200" as="geometry" />
        </mxCell>
        
        <mxCell id="barcode_main" value="Scan Barcode" style="ellipse;whiteSpace=wrap;html=1;fillColor=#dae8fc;strokeColor=#6c8ebf;fontSize=11;fontStyle=1;" vertex="1" parent="1">
          <mxGeometry x="680" y="150" width="160" height="40" as="geometry" />
        </mxCell>
        
        <mxCell id="barcode_scan" value="Scan Manual&#xa;• Scanner barcode&#xa;• Produk" style="ellipse;whiteSpace=wrap;html=1;fillColor=#dae8fc;strokeColor=#6c8ebf;fontSize=9;" vertex="1" parent="1">
          <mxGeometry x="670" y="210" width="120" height="60" as="geometry" />
        </mxCell>
        
        <mxCell id="barcode_input" value="Input Manual&#xa;• Kode barcode&#xa;• Secara manual" style="ellipse;whiteSpace=wrap;html=1;fillColor=#dae8fc;strokeColor=#6c8ebf;fontSize=9;" vertex="1" parent="1">
          <mxGeometry x="730" y="210" width="120" height="60" as="geometry" />
        </mxCell>
        
        <mxCell id="barcode_validate" value="Validasi Barcode&#xa;• Barcode valid&#xa;• Produk ditemukan" style="ellipse;whiteSpace=wrap;html=1;fillColor=#dae8fc;strokeColor=#6c8ebf;fontSize=9;" vertex="1" parent="1">
          <mxGeometry x="670" y="280" width="120" height="60" as="geometry" />
        </mxCell>
        
        <mxCell id="barcode_error" value="Error Handling&#xa;• Barcode tidak valid&#xa;• Produk tidak ditemukan" style="ellipse;whiteSpace=wrap;html=1;fillColor=#dae8fc;strokeColor=#6c8ebf;fontSize=9;" vertex="1" parent="1">
          <mxGeometry x="730" y="280" width="120" height="60" as="geometry" />
        </mxCell>
        
        <!-- Lihat Stok Package -->
        <mxCell id="stock_package" value="Lihat Stok Produk" style="rounded=1;whiteSpace=wrap;html=1;fillColor=#e1d5e7;strokeColor=#9673a6;fontSize=12;fontStyle=1;" vertex="1" parent="1">
          <mxGeometry x="900" y="120" width="200" height="200" as="geometry" />
        </mxCell>
        
        <mxCell id="stock_main" value="Lihat Stok Produk" style="ellipse;whiteSpace=wrap;html=1;fillColor=#dae8fc;strokeColor=#6c8ebf;fontSize=11;fontStyle=1;" vertex="1" parent="1">
          <mxGeometry x="920" y="150" width="160" height="40" as="geometry" />
        </mxCell>
        
        <mxCell id="stock_realtime" value="Stok Real-time&#xa;• Stok terkini&#xa;• Setiap produk" style="ellipse;whiteSpace=wrap;html=1;fillColor=#dae8fc;strokeColor=#6c8ebf;fontSize=9;" vertex="1" parent="1">
          <mxGeometry x="910" y="210" width="120" height="60" as="geometry" />
        </mxCell>
        
        <mxCell id="stock_low" value="Stok Menipis&#xa;• Produk dengan&#xa;• Stok hampir habis" style="ellipse;whiteSpace=wrap;html=1;fillColor=#dae8fc;strokeColor=#6c8ebf;fontSize=9;" vertex="1" parent="1">
          <mxGeometry x="970" y="210" width="120" height="60" as="geometry" />
        </mxCell>
        
        <mxCell id="stock_empty" value="Stok Habis&#xa;• Produk yang&#xa;• Sudah habis stok" style="ellipse;whiteSpace=wrap;html=1;fillColor=#dae8fc;strokeColor=#6c8ebf;fontSize=9;" vertex="1" parent="1">
          <mxGeometry x="910" y="280" width="120" height="60" as="geometry" />
        </mxCell>
        
        <mxCell id="stock_update" value="Update Stok&#xa;• Update stok&#xa;• Setelah transaksi" style="ellipse;whiteSpace=wrap;html=1;fillColor=#dae8fc;strokeColor=#6c8ebf;fontSize=9;" vertex="1" parent="1">
          <mxGeometry x="970" y="280" width="120" height="60" as="geometry" />
        </mxCell>
        
        <!-- Hitung Total Package -->
        <mxCell id="total_package" value="Hitung Total & Kembalian" style="rounded=1;whiteSpace=wrap;html=1;fillColor=#e1d5e7;strokeColor=#9673a6;fontSize=12;fontStyle=1;" vertex="1" parent="1">
          <mxGeometry x="180" y="400" width="200" height="200" as="geometry" />
        </mxCell>
        
        <mxCell id="total_main" value="Hitung Total & Kembalian" style="ellipse;whiteSpace=wrap;html=1;fillColor=#dae8fc;strokeColor=#6c8ebf;fontSize=11;fontStyle=1;" vertex="1" parent="1">
          <mxGeometry x="200" y="430" width="160" height="40" as="geometry" />
        </mxCell>
        
        <mxCell id="total_subtotal" value="Subtotal&#xa;• Setiap produk&#xa;• Harga x jumlah" style="ellipse;whiteSpace=wrap;html=1;fillColor=#dae8fc;strokeColor=#6c8ebf;fontSize=9;" vertex="1" parent="1">
          <mxGeometry x="190" y="490" width="120" height="60" as="geometry" />
        </mxCell>
        
        <mxCell id="total_discount" value="Diskon&#xa;• Jika ada promo&#xa;• Potongan harga" style="ellipse;whiteSpace=wrap;html=1;fillColor=#dae8fc;strokeColor=#6c8ebf;fontSize=9;" vertex="1" parent="1">
          <mxGeometry x="250" y="490" width="120" height="60" as="geometry" />
        </mxCell>
        
        <mxCell id="total_tax" value="PPN&#xa;• Pajak jika&#xa;• Diperlukan" style="ellipse;whiteSpace=wrap;html=1;fillColor=#dae8fc;strokeColor=#6c8ebf;fontSize=9;" vertex="1" parent="1">
          <mxGeometry x="190" y="560" width="120" height="60" as="geometry" />
        </mxCell>
        
        <mxCell id="total_final" value="Total Akhir&#xa;• Total akhir&#xa;• Pembayaran" style="ellipse;whiteSpace=wrap;html=1;fillColor=#dae8fc;strokeColor=#6c8ebf;fontSize=9;" vertex="1" parent="1">
          <mxGeometry x="250" y="560" width="120" height="60" as="geometry" />
        </mxCell>
        
        <!-- Print Struk Package -->
        <mxCell id="receipt_package" value="Print Struk" style="rounded=1;whiteSpace=wrap;html=1;fillColor=#e1d5e7;strokeColor=#9673a6;fontSize=12;fontStyle=1;" vertex="1" parent="1">
          <mxGeometry x="420" y="400" width="200" height="200" as="geometry" />
        </mxCell>
        
        <mxCell id="receipt_main" value="Print Struk" style="ellipse;whiteSpace=wrap;html=1;fillColor=#dae8fc;strokeColor=#6c8ebf;fontSize=11;fontStyle=1;" vertex="1" parent="1">
          <mxGeometry x="440" y="430" width="160" height="40" as="geometry" />
        </mxCell>
        
        <mxCell id="receipt_preview" value="Preview Struk&#xa;• Lihat preview&#xa;• Sebelum print" style="ellipse;whiteSpace=wrap;html=1;fillColor=#dae8fc;strokeColor=#6c8ebf;fontSize=9;" vertex="1" parent="1">
          <mxGeometry x="430" y="490" width="120" height="60" as="geometry" />
        </mxCell>
        
        <mxCell id="receipt_print" value="Print Struk&#xa;• Cetak struk&#xa;• Transaksi" style="ellipse;whiteSpace=wrap;html=1;fillColor=#dae8fc;strokeColor=#6c8ebf;fontSize=9;" vertex="1" parent="1">
          <mxGeometry x="490" y="490" width="120" height="60" as="geometry" />
        </mxCell>
        
        <mxCell id="receipt_format" value="Format Struk&#xa;• Format dan&#xa;• Informasi struk" style="ellipse;whiteSpace=wrap;html=1;fillColor=#dae8fc;strokeColor=#6c8ebf;fontSize=9;" vertex="1" parent="1">
          <mxGeometry x="430" y="560" width="120" height="60" as="geometry" />
        </mxCell>
        
        <mxCell id="receipt_reprint" value="Re-print&#xa;• Cetak ulang&#xa;• Jika diperlukan" style="ellipse;whiteSpace=wrap;html=1;fillColor=#dae8fc;strokeColor=#6c8ebf;fontSize=9;" vertex="1" parent="1">
          <mxGeometry x="490" y="560" width="120" height="60" as="geometry" />
        </mxCell>
        
        <!-- Connections -->
        <!-- Actor to main use cases -->
        <mxCell id="conn1" value="" style="endArrow=classic;html=1;rounded=0;exitX=1;exitY=0.5;exitDx=0;exitDy=0;entryX=0;entryY=0.5;entryDx=0;entryDy=0;" edge="1" parent="1" source="actor" target="search_main">
          <mxGeometry width="50" height="50" relative="1" as="geometry">
            <mxPoint x="400" y="400" as="sourcePoint" />
            <mxPoint x="450" y="350" as="targetPoint" />
          </mxGeometry>
        </mxCell>
        
        <mxCell id="conn2" value="" style="endArrow=classic;html=1;rounded=0;exitX=1;exitY=0.5;exitDx=0;exitDy=0;entryX=0;entryY=0.5;entryDx=0;entryDy=0;" edge="1" parent="1" source="actor" target="transaction_main">
          <mxGeometry width="50" height="50" relative="1" as="geometry">
            <mxPoint x="400" y="400" as="sourcePoint" />
            <mxPoint x="450" y="350" as="targetPoint" />
          </mxGeometry>
        </mxCell>
        
        <mxCell id="conn3" value="" style="endArrow=classic;html=1;rounded=0;exitX=1;exitY=0.5;exitDx=0;exitDy=0;entryX=0;entryY=0.5;entryDx=0;entryDy=0;" edge="1" parent="1" source="actor" target="barcode_main">
          <mxGeometry width="50" height="50" relative="1" as="geometry">
            <mxPoint x="400" y="400" as="sourcePoint" />
            <mxPoint x="450" y="350" as="targetPoint" />
          </mxGeometry>
        </mxCell>
        
        <mxCell id="conn4" value="" style="endArrow=classic;html=1;rounded=0;exitX=1;exitY=0.5;exitDx=0;exitDy=0;entryX=0;entryY=0.5;entryDx=0;entryDy=0;" edge="1" parent="1" source="actor" target="stock_main">
          <mxGeometry width="50" height="50" relative="1" as="geometry">
            <mxPoint x="400" y="400" as="sourcePoint" />
            <mxPoint x="450" y="350" as="targetPoint" />
          </mxGeometry>
        </mxCell>
        
        <mxCell id="conn5" value="" style="endArrow=classic;html=1;rounded=0;exitX=1;exitY=0.5;exitDx=0;exitDy=0;entryX=0;entryY=0.5;entryDx=0;entryDy=0;" edge="1" parent="1" source="actor" target="total_main">
          <mxGeometry width="50" height="50" relative="1" as="geometry">
            <mxPoint x="400" y="400" as="sourcePoint" />
            <mxPoint x="450" y="350" as="targetPoint" />
          </mxGeometry>
        </mxCell>
        
        <mxCell id="conn6" value="" style="endArrow=classic;html=1;rounded=0;exitX=1;exitY=0.5;exitDx=0;exitDy=0;entryX=0;entryY=0.5;entryDx=0;entryDy=0;" edge="1" parent="1" source="actor" target="receipt_main">
          <mxGeometry width="50" height="50" relative="1" as="geometry">
            <mxPoint x="400" y="400" as="sourcePoint" />
            <mxPoint x="450" y="350" as="targetPoint" />
          </mxGeometry>
        </mxCell>
        
        <!-- Legend -->
        <mxCell id="legend" value="LEGENDA:&#xa;• Package: Kelompok fitur&#xa;• Use Case: Fitur utama&#xa;• Sub-Use Case: Detail aktivitas&#xa;• Include: Relasi wajib" style="text;html=1;strokeColor=#666666;fillColor=#f5f5f5;align=left;verticalAlign=top;whiteSpace=wrap;rounded=1;fontSize=10;" vertex="1" parent="1">
          <mxGeometry x="180" y="650" width="200" height="100" as="geometry" />
        </mxCell>
        
      </root>
    </mxGraphModel>
  </diagram>
</mxfile>
